+15_ID_stride2.mot
nRows=6
nColumns=38

name +15_ID_stride2.mot
datacolumns 38
datarows 6
range 0.6250000000 0.6500000000
endheader
time	pelvis_tilt_moment	pelvis_list_moment	pelvis_rotation_moment	pelvis_tx_force	pelvis_ty_force	pelvis_tz_force	hip_flexion_r_moment	hip_adduction_r_moment	hip_rotation_r_moment	knee_angle_r_moment	ankle_angle_r_moment	subtalar_angle_r_moment	mtp_angle_r_moment	hip_flexion_l_moment	hip_adduction_l_moment	hip_rotation_l_moment	knee_angle_l_moment	ankle_angle_l_moment	subtalar_angle_l_moment	mtp_angle_l_moment	lumbar_extension_moment	lumbar_bending_moment	lumbar_rotation_moment	arm_flex_r_moment	arm_add_r_moment	arm_rot_r_moment	elbow_flex_r_moment	pro_sup_r_moment	wrist_flex_r_moment	wrist_dev_r_moment	arm_flex_l_moment	arm_add_l_moment	arm_rot_l_moment	elbow_flex_l_moment	pro_sup_l_moment	wrist_flex_l_moment	wrist_dev_l_moment
        0.6250000000	      -14.1299272503	      -15.1729213422	        2.8135650388	       22.6365197498	       24.8003196542	      -59.5322784524	       -3.5541098354	      -56.7499889069	       27.4106720884	       23.0104982309	     -206.9123810996	       46.0121350382	       -0.0217750918	       -9.9571547464	        5.7013626477	       -1.9222147472	       -4.2005480517	        2.1239073972	       -0.1410649913	        0.1331120950	       31.0267799629	        9.0271335791	      -32.7991059322	        1.7937637065	       -2.2156282702	       -3.3076719367	        6.1458171832	       -0.2264758774	       -0.2384998484	       -0.5960022129	        7.8630692098	        6.4130168122	        4.0612977857	        6.2157566303	       -0.0075619356	        0.5411687688	       -0.4387839405	
        0.6300000000	      -16.2880933052	      -22.0701669259	        0.2589949245	       23.0938048095	        8.2166788656	      -72.8298516339	        0.6601451661	      -51.8164076969	       23.1295866909	       18.3183310180	     -198.5226326398	       42.9807444265	       -0.0241904835	      -13.3601327590	        3.2946851443	       -1.0496285003	       -3.6454842490	        2.2120608554	       -0.2251471015	        0.1361770313	       21.4535066248	        9.1540315290	      -33.3269099537	        1.6605482838	       -2.4406128634	       -3.4283806542	        5.6669964156	       -0.2223105241	       -0.2612590720	       -0.5553322240	        7.9659436477	        6.3098146773	        4.0512862930	        5.8114089010	        0.0008315110	        0.5304130186	       -0.4001866326	
        0.6350000000	      -14.7762419844	      -31.6509997088	        0.4724226637	       25.7302904589	       -3.3376155580	      -75.0946191794	       -1.3337909828	      -48.9792075127	       21.8567239014	        9.7135148771	     -190.7326401168	       41.0624560548	       -0.0264399846	      -15.9706925446	        1.3504180272	       -0.1039525204	       -2.9352094512	        2.3280111749	       -0.3193748374	        0.1405259400	       14.4202195275	        9.0519512679	      -33.4348946650	        1.4595423606	       -2.5047129949	       -3.4328675214	        5.1820356527	       -0.2150552532	       -0.2743027686	       -0.5135276068	        7.9179390700	        6.0344351780	        3.9406523787	        5.4083767135	        0.0074244865	        0.5129426886	       -0.3644326666	
        0.6400000000	      -10.4433624742	      -42.0310440470	        1.0402181196	       30.0745551017	       -3.8322627150	      -71.4075840781	       -5.7952717658	      -48.0266057361	       21.8401559823	       -0.3963278076	     -182.2325479173	       39.3100674983	       -0.0286515312	      -18.2505534242	        0.3143594828	        0.8502628219	       -2.4544574368	        2.4551808704	       -0.4147842543	        0.1456034648	        9.6087181024	        8.9317861742	      -33.3912205216	        1.1723770192	       -2.4446274326	       -3.3748313843	        4.7019685712	       -0.2057733828	       -0.2789683962	       -0.4716764555	        7.7890592634	        5.6229800637	        3.7645805006	        5.0244391426	        0.0125075278	        0.4910678525	       -0.3322318179	
        0.6450000000	       -4.0243613498	      -46.1615830945	        0.7519905916	       35.0040573443	       -0.4308541296	      -64.2577589614	       -6.3689839495	      -47.0949313228	       21.5390018660	       -8.3054414229	     -171.8918327355	       37.0879645354	       -0.0309205429	      -20.7567538125	        0.3559355074	        1.7333327245	       -2.5316761126	        2.5722642938	       -0.5005918558	        0.1505752264	        6.4198306338	        8.9501661357	      -33.3394286332	        0.7852183266	       -2.2767902874	       -3.2398297079	        4.2197938690	       -0.1951649037	       -0.2788888047	       -0.4293073118	        7.5789998923	        5.1062291036	        3.5473451964	        4.6565414917	        0.0168198134	        0.4668952982	       -0.3023387669	
        0.6500000000	        2.5280571060	      -45.4250342468	       -1.3714237517	       38.6548514852	        6.8915360598	      -58.1731502414	       -2.0161983966	      -45.1077084485	       20.0091822621	      -10.5544825391	     -158.8417967981	       34.0613558151	       -0.0331776585	      -24.0752554282	        1.4250971520	        2.4305146737	       -3.3927281063	        2.6393658429	       -0.5567605264	        0.1539208788	        4.2226400475	        9.1640710122	      -33.3419447832	        0.2771009031	       -2.0308799726	       -3.0616530861	        3.7111893983	       -0.1833014364	       -0.2759755780	       -0.3843394154	        7.2892971144	        4.5077782574	        3.3054604349	        4.2812995797	        0.0212034038	        0.4414297836	       -0.2720386841	
